# xmcd CD database file
#
# Track frame offsets:
#	150
#	14894
#	34848
#	50037
#	67302
#	84543
#	98560
#	116292
#	133143
#	149331
#	162393
#	178657
#	192218
#	210851
#	228287
#	244059
#	259609
#	274668
#	289719
#	309322
#
# Disc length: 4374 seconds
#
# Revision: 0
# Processed by: cddbd v1.4PL0 Copyright (c) Steve Scherf et al.
# Submitted via: CDex 1.40Beta9
#
DISCID=22111414
DTITLE=Somebody's Darling - Still Wearing Black
DYEAR=2003
DGENRE=Country
TTITLE0=Lament For Faith
TTITLE1=Shotgun Down The Avalanche
TTITLE2=That`s Why I Wear Black
TTITLE3=Only Time
TTITLE4=Someone I Don`t Want To Be
TTITLE5=You`ll Remember Me
TTITLE6=A Catcher In The Rye
TTITLE7=Breathe
TTITLE8=Born With A Broken Wing
TTITLE9=Little John Of God
TTITLE10=Forever For Now
TTITLE11=Angel Flying High
TTITLE12=Like Two Fires
TTITLE13=Chapter Three
TTITLE14=If Not In Heaven
TTITLE15=Somebody's Darling
TTITLE16=Nowhere Slow
TTITLE17=Mask Of Shame
TTITLE18=Twilight Moment
TTITLE19=Dans Meg Gjennom Kropp Og Ånd
EXTD=YEAR: 2003 ID3G: 2
EXTT0=
EXTT1=
EXTT2=
EXTT3=
EXTT4=
EXTT5=
EXTT6=
EXTT7=
EXTT8=
EXTT9=
EXTT10=
EXTT11=
EXTT12=
EXTT13=
EXTT14=
EXTT15=
EXTT16=
EXTT17=
EXTT18=
EXTT19=
PLAYORDER=
